# xmcd
#
# Track frame offsets:
#	150
#	16606
#	39169
#	76560
#	95412
#	138179
#	168598
#	198005
#
# Disc length: 3353 seconds
#
# Revision: 1
# Processed by: cddbd v1.5.1PL2 Copyright (c) Steve Scherf et al.
# Submitted via: audiograbber 1.83.01
#
DISCID=490d1708
DTITLE=Allman Brothers Band - Knoxville TN - 9-27-05
DYEAR=2005
DGENRE=Blues
TTITLE0=Dont Want You No More
TTITLE1=Its Not My Cross To Bear
TTITLE2=You Dont Love Me
TTITLE3=Midnight Rider
TTITLE4=Woman Across The River
TTITLE5=Come And Go Blues
TTITLE6=Every Hungry Woman
TTITLE7=Good Morning Little School Girl
EXTD=
EXTT0=
EXTT1=
EXTT2=
EXTT3=
EXTT4=
EXTT5=
EXTT6=
EXTT7=
PLAYORDER=
